<svg id="visual" viewBox="0 0 960 540" width="960" height="540" xmlns="http://www.w3.org/2000/svg" xmlns:xlink="http://www.w3.org/1999/xlink" version="1.1"><rect x="0" y="0" width="960" height="540" fill="#ffffff"></rect><defs><linearGradient id="grad1_0" x1="43.8%" y1="0%" x2="100%" y2="100%"><stop offset="14.444444444444446%" stop-color="#c12cc9" stop-opacity="1"></stop><stop offset="85.55555555555554%" stop-color="#c12cc9" stop-opacity="1"></stop></linearGradient></defs><defs><linearGradient id="grad1_1" x1="43.8%" y1="0%" x2="100%" y2="100%"><stop offset="14.444444444444446%" stop-color="#c12cc9" stop-opacity="1"></stop><stop offset="85.55555555555554%" stop-color="#e59fe5" stop-opacity="1"></stop></linearGradient></defs><defs><linearGradient id="grad1_2" x1="43.8%" y1="0%" x2="100%" y2="100%"><stop offset="14.444444444444446%" stop-color="#ffffff" stop-opacity="1"></stop><stop offset="85.55555555555554%" stop-color="#e59fe5" stop-opacity="1"></stop></linearGradient></defs><defs><linearGradient id="grad2_0" x1="0%" y1="0%" x2="56.3%" y2="100%"><stop offset="14.444444444444446%" stop-color="#c12cc9" stop-opacity="1"></stop><stop offset="85.55555555555554%" stop-color="#c12cc9" stop-opacity="1"></stop></linearGradient></defs><defs><linearGradient id="grad2_1" x1="0%" y1="0%" x2="56.3%" y2="100%"><stop offset="14.444444444444446%" stop-color="#e59fe5" stop-opacity="1"></stop><stop offset="85.55555555555554%" stop-color="#c12cc9" stop-opacity="1"></stop></linearGradient></defs><defs><linearGradient id="grad2_2" x1="0%" y1="0%" x2="56.3%" y2="100%"><stop offset="14.444444444444446%" stop-color="#e59fe5" stop-opacity="1"></stop><stop offset="85.55555555555554%" stop-color="#ffffff" stop-opacity="1"></stop></linearGradient></defs><g transform="translate(960, 0)"><path d="M0 243C-23.3 234.2 -46.6 225.4 -70.5 216.8C-94.3 208.3 -118.7 199.9 -132.8 182.8C-147 165.8 -150.9 140.2 -168.3 122.3C-185.6 104.3 -216.4 94.2 -231.1 75.1C-245.8 56 -244.4 28 -243 0L0 0Z" fill="#f3cff2"></path><path d="M0 162C-15.5 156.1 -31.1 150.3 -47 144.6C-62.9 138.8 -79.1 133.2 -88.6 121.9C-98 110.5 -100.6 93.4 -112.2 81.5C-123.8 69.6 -144.3 62.8 -154.1 50.1C-163.9 37.3 -162.9 18.7 -162 0L0 0Z" fill="#d46dd7"></path><path d="M0 81C-7.8 78.1 -15.5 75.1 -23.5 72.3C-31.4 69.4 -39.6 66.6 -44.3 60.9C-49 55.3 -50.3 46.7 -56.1 40.8C-61.9 34.8 -72.1 31.4 -77 25C-81.9 18.7 -81.5 9.3 -81 0L0 0Z" fill="#c12cc9"></path></g><g transform="translate(0, 540)"><path d="M0 -243C26.5 -242.6 53 -242.2 75.1 -231.1C97.2 -220 114.8 -198.1 129.9 -178.8C145 -159.5 157.7 -142.6 173.1 -125.8C188.5 -108.9 206.6 -92 218.7 -71.1C230.8 -50.1 236.9 -25.1 243 0L0 0Z" fill="#f3cff2"></path><path d="M0 -162C17.7 -161.7 35.4 -161.5 50.1 -154.1C64.8 -146.7 76.5 -132.1 86.6 -119.2C96.7 -106.3 105.2 -95.1 115.4 -83.9C125.7 -72.6 137.8 -61.4 145.8 -47.4C153.9 -33.4 157.9 -16.7 162 0L0 0Z" fill="#d46dd7"></path><path d="M0 -81C8.8 -80.9 17.7 -80.7 25 -77C32.4 -73.3 38.3 -66 43.3 -59.6C48.3 -53.2 52.6 -47.5 57.7 -41.9C62.8 -36.3 68.9 -30.7 72.9 -23.7C76.9 -16.7 79 -8.4 81 0L0 0Z" fill="#c12cc9"></path></g></svg>